<svg xmlns="http://www.w3.org/2000/svg" viewBox="0 0 512 512"><path fill="#ffa96b" d="M497,431H116.33a25,25,0,0,1,0-50H447a15,15,0,0,0,14.63-11.68l50-220A15,15,0,0,0,497,131H108.54L90.83,12.78A15,15,0,0,0,76,0H15a15,15,0,0,0,0,30H63.08c.8,5.34,46.76,312.12,48.12,321.25A55,55,0,0,0,116.33,461H497a15,15,0,0,0,0-30Z"/><path fill="#ff9346" d="M497,431H116.33a25,25,0,0,1,0-50H447a15,15,0,0,0,14.63-11.68l4.11-18.07H111.2A55,55,0,0,0,116.33,461H497a15,15,0,0,0,0-30Z"/><circle cx="176" cy="457" r="55" fill="#9ea6bf"/><circle cx="417.08" cy="457" r="55" fill="#9ea6bf"/><path fill="#8690af" d="M223.57 429.43a55 55 0 0 0-75.14 75.14 55 55 0 1 1 75.14-75.14zM464.65 429.43a55 55 0 0 0-75.15 75.13 55 55 0 1 1 75.15-75.13z"/><path fill="#ff9346" d="M90.83,12.78A15,15,0,0,0,76,0H15a15,15,0,0,0,0,30H63.08c.3,2,6.9,46.08,15.13,101h30.33Z"/><path fill="#faf7f5" d="M206.31 306a15 15 0 0 1-15-15V201a15 15 0 0 1 30 0v90A15 15 0 0 1 206.31 306zM386.31 306a15 15 0 0 1-15-15V201a15 15 0 1 1 30 0v90A15 15 0 0 1 386.31 306zM296.31 326a15 15 0 0 1-15-15V181a15 15 0 0 1 30 0V311A15 15 0 0 1 296.31 326z"/></svg>